<svg xmlns="http://www.w3.org/2000/svg" id="Layer_1" data-name="Layer 1" viewBox="0 0 24 24" width="300" height="300" version="1.1" xmlns:xlink="http://www.w3.org/1999/xlink" xmlns:svgjs="http://svgjs.dev/svgjs"><g transform="matrix(0.48,0,0,0.48,6.24,6.24)"><path d="m12,0C5.383,0,0,5.383,0,12s5.383,12,12,12,12-5.383,12-12S18.617,0,12,0Zm-2.979,15.787c.048.142.141.213.277.213h6.702c.553,0,1,.447,1,1s-.447,1-1,1h-6.702c-1,0-1.854-.62-2.174-1.58-.326-.976-.009-2.002.807-2.615l6.938-5.209c.166-.124.141-.293.111-.383-.048-.142-.141-.213-.277-.213h-6.702c-.553,0-1-.447-1-1s.447-1,1-1h6.702c1,0,1.854.62,2.174,1.58.326.976.009,2.002-.807,2.615l-6.938,5.209c-.166.124-.141.293-.111.383Z" fill="#ff274b" fill-opacity="1" data-original-color="#000000ff" stroke="none" stroke-opacity="1"/></g></svg>